#!OML:ASF I:\Random Stuff\random\construction\7_22_03\Session 2\subj1.ASF
:FULLY-SPECIFIED
:DEGREES
1100
root -9.14079 17.6097 -5.80854 -493.475 69.4691 -507.868
lowerback 15.3783 2.02642 -6.67513
upperback 6.40358 2.38404 -9.40609
thorax -1.57421 1.58779 -6.66853
lowerneck -20.0708 -2.56433 -1.03951
upperneck 34.015 -2.6768 1.1476
head 15.3246 -0.799053 0.243348
rclavicle 5.08889e-014 -8.26944e-014
rhumerus 18.3206 65.8745 -31.5076
rradius 75.2576
rwrist -76.1112
rhand -20.9565 -15.309
rfingers 7.12502
rthumb 5.41631 -45.2198
lclavicle 5.08889e-014 -8.26944e-014
lhumerus 37.4702 -71.0541 59.2531
lradius 32.7344
lwrist -6.29945
lhand -22.8936 59.1186
lfingers 7.12502
lthumb 3.54582 89.0689
rfemur -9.04689 -9.14743 24.2965
rtibia 4.29375e-014
rfoot -0.0338695 -9.43443
rtoes -27.2135
lfemur -36.6592 -4.55195 -4.07607
ltibia 37.1265
lfoot -15.4616 -2.68394
ltoes -26.3379
1101
root -9.13897 17.6108 -5.81618 -493.418 69.6554 -507.862
lowerback 15.2719 2.05744 -6.82982
upperback 6.38962 2.41627 -9.43695
thorax -1.53275 1.60207 -6.61421
lowerneck -20.0852 -2.52782 -0.977083
upperneck 34.0301 -2.61209 1.05997
head 15.3311 -0.776054 0.207703
rclavicle 2.54444e-014 -3.81667e-014
rhumerus 17.4933 65.0436 -32.2134
rradius 75.936
rwrist -83.8483
rhand -22.1919 -13.5842
rfingers 7.12502
rthumb 4.22342 -43.5221
lclavicle 2.54444e-014 -3.81667e-014
lhumerus 36.561 -70.753 60.2404
lradius 32.7511
lwrist -6.47657
lhand -22.8807 59.0948
lfingers 7.12502
lthumb 3.55833 89.0449
rfemur -9.1129 -9.01806 24.1533
rtibia 0
rfoot 0.0505806 -9.43352
rtoes -27.6477
lfemur -36.6347 -4.43314 -4.2347
ltibia 37.1015
lfoot -15.4689 -2.71771
ltoes -25.9094
1102
root -9.14016 17.6133 -5.82838 -493.659 69.8997 -508.198
lowerback 15.1848 2.07047 -7.01985
upperback 6.38338 2.42336 -9.50621
thorax -1.49349 1.60624 -6.57933
lowerneck -20.1028 -2.48228 -0.930943
upperneck 34.035 -2.53438 0.98895
head 15.3341 -0.747494 0.184264
rclavicle 3.18055e-015 5.08889e-014
rhumerus 17.9463 66.3553 -31.3189
rradius 76.2812
rwrist -77.7975
rhand -24.1801 -12.5292
rfingers 7.12502
rthumb 2.30345 -42.4965
lclavicle 3.18055e-015 5.08889e-014
lhumerus 35.2913 -70.3052 61.6798
lradius 32.7099
lwrist -6.94997
lhand -22.8716 58.9735
lfingers 7.12502
lthumb 3.56713 88.9234
rfemur -9.20938 -8.9414 23.855
rtibia -3.81667e-014
rfoot 0.140584 -9.45484
rtoes -28.1456
lfemur -36.6286 -4.46819 -4.52082
ltibia 37.05
lfoot -15.4603 -2.58319
ltoes -26.0804
1103
root -9.13943 17.6165 -5.83904 -493.898 70.1406 -508.584
lowerback 15.0137 2.08888 -7.23385
upperback 6.38167 2.4463 -9.57124
thorax -1.40437 1.61706 -6.52329
lowerneck -20.079 -2.40911 -0.883069
upperneck 33.9961 -2.41567 0.914337
head 15.3061 -0.702786 0.166935
rclavicle -5.08889e-014 7.31528e-014
rhumerus 18.1559 67.278 -30.8527
rradius 75.6325
rwrist -66.7736
rhand -22.2276 -13.2885
rfingers 7.12502
rthumb 4.18902 -43.2271
lclavicle -5.08889e-014 7.31528e-014
lhumerus 33.9854 -69.8427 63.1817
lradius 32.655
lwrist -7.53935
lhand -22.9069 58.684
lfingers 7.12502
lthumb 3.53304 88.6345
rfemur -9.34894 -8.87464 23.5564
rtibia -2.14687e-014
rfoot 0.19775 -9.49363
rtoes -28.4468
lfemur -36.674 -4.43372 -4.83072
ltibia 36.993
lfoot -15.449 -2.50986
ltoes -26.1461
1104
root -9.13748 17.6161 -5.84365 -494.086 70.1884 -508.808
lowerback 14.9864 2.0776 -7.31424
upperback 6.40782 2.43059 -9.56698
thorax -1.36483 1.60863 -6.46786
lowerneck -20.1295 -2.37537 -0.873751
upperneck 33.9865 -2.33609 0.820796
head 15.3104 -0.682454 0.14025
rclavicle -2.54444e-014 -1.59028e-014
rhumerus 18.2934 67.908 -30.4796
rradius 76.3412
rwrist -63.3061
rhand -22.4796 -12.0319
rfingers 7.12502
rthumb 3.94565 -41.9752
lclavicle -2.54444e-014 -1.59028e-014
lhumerus 33.1135 -69.5013 64.1991
lradius 32.644
lwrist -7.94668
lhand -22.9766 58.5388
lfingers 7.12502
lthumb 3.46566 88.4904
rfemur -9.36029 -8.90066 23.4438
rtibia 1.59028e-014
rfoot 0.211131 -9.52264
rtoes -28.7024
lfemur -36.6777 -4.43168 -4.95997
ltibia 36.9509
lfoot -15.4219 -2.54537
ltoes -26.0351
1105
root -9.13395 17.6164 -5.84582 -493.942 70.2173 -508.683
lowerback 14.9276 2.10129 -7.30556
upperback 6.41675 2.47021 -9.5473
thorax -1.32239 1.62674 -6.45328
lowerneck -20.1958 -2.36294 -0.807359
upperneck 34.0158 -2.29062 0.683038
head 15.3354 -0.674311 0.0786792
rclavicle -9.54166e-015 5.725e-014
rhumerus 17.9625 68.2811 -30.6534
rradius 77.178
rwrist -60.5195
rhand -23.1421 -11.4788
rfingers 7.12502
rthumb 3.3059 -41.4329
lclavicle -9.54166e-015 5.725e-014
lhumerus 32.7316 -69.3661 64.6211
lradius 32.7697
lwrist -8.17121
lhand -22.8661 58.6038
lfingers 7.12502
lthumb 3.57241 88.5536
rfemur -9.37132 -8.84772 23.4554
rtibia -4.77083e-015
rfoot 0.207939 -9.54546
rtoes -28.7396
lfemur -36.6722 -4.2805 -4.98627
ltibia 36.9456
lfoot -15.4181 -2.64381
ltoes -26.1598
1106
root -9.13289 17.6167 -5.84691 -494.005 70.2265 -508.723
lowerback 14.969 2.10462 -7.30346
upperback 6.42213 2.46922 -9.52478
thorax -1.34005 1.62565 -6.43186
lowerneck -20.1621 -2.28932 -0.700517
upperneck 34.024 -2.16176 0.538148
head 15.3258 -0.62608 0.0239086
rclavicle 1.59028e-014 8.90555e-014
rhumerus 17.2355 68.6505 -31.4738
rradius 77.4314
rwrist -56.2047
rhand -23.8954 -11.3948
rfingers 7.12502
rthumb 2.57835 -41.359
lclavicle 1.59028e-014 8.90555e-014
lhumerus 32.1541 -69.1822 65.2485
lradius 32.8576
lwrist -8.46397
lhand -22.6163 58.6286
lfingers 7.12502
lthumb 3.81368 88.5742
rfemur -9.32961 -8.8532 23.4272
rtibia 8.74653e-015
rfoot 0.182004 -9.54503
rtoes -28.4282
lfemur -36.6612 -4.2397 -5.02659
ltibia 36.9868
lfoot -15.4245 -2.70846
ltoes -26.0489
1107
root -9.12836 17.6157 -5.84359 -493.729 70.2097 -508.425
lowerback 14.9025 2.11523 -7.25912
upperback 6.43183 2.49326 -9.46153
thorax -1.29549 1.63371 -6.38601
lowerneck -20.1417 -2.229 -0.677205
upperneck 34.0536 -2.05158 0.477351
head 15.3329 -0.584057 0.0154899
rclavicle -2.54444e-014 5.725e-014
rhumerus 16.9421 68.9232 -31.822
rradius 77.499
rwrist -51.7379
rhand -23.2005 -12.1714
rfingers 7.12502
rthumb 3.24949 -42.1263
lclavicle -2.54444e-014 5.725e-014
lhumerus 31.8758 -69.0828 65.5592
lradius 32.8786
lwrist -8.52921
lhand -22.6611 58.6214
lfingers 7.12502
lthumb 3.7704 88.5678
rfemur -9.31085 -8.78378 23.5394
rtibia -2.78299e-014
rfoot 0.175551 -9.5494
rtoes -28.2776
lfemur -36.6575 -4.03456 -4.95484
ltibia 37.0375
lfoot -15.4495 -2.88126
ltoes -25.7786
1108
root -9.12445 17.6122 -5.83803 -493.475 70.0734 -508.021
lowerback 14.9401 2.11459 -7.11918
upperback 6.49886 2.51138 -9.35928
thorax -1.24462 1.64078 -6.35469
lowerneck -20.1997 -2.23795 -0.713173
upperneck 34.1015 -2.05591 0.494229
head 15.3702 -0.587363 0.0276644
rclavicle 2.22639e-014 -6.67916e-014
rhumerus 16.6983 68.8849 -31.934
rradius 78.2122
rwrist -53.0006
rhand -22.954 -12.0136
rfingers 7.12502
rthumb 3.4875 -41.9648
lclavicle 2.22639e-014 -6.67916e-014
lhumerus 32.3034 -69.1915 65.0997
lradius 32.9691
lwrist -8.25948
lhand -22.8609 58.5638
lfingers 7.12502
lthumb 3.57741 88.5135
rfemur -9.16093 -8.77575 23.7507
rtibia -6.36111e-015
rfoot 0.149572 -9.57417
rtoes -28.1999
lfemur -36.5581 -3.99055 -4.74627
ltibia 37.0777
lfoot -15.4699 -2.93104
ltoes -26.0525
1109
root -9.12259 17.6125 -5.83525 -493.283 70.0702 -507.786
lowerback 14.8747 2.13437 -7.09656
upperback 6.54244 2.55249 -9.29885
thorax -1.16344 1.6584 -6.30147
lowerneck -20.2485 -2.2804 -0.729215
upperneck 34.1269 -2.13096 0.536375
head 15.3952 -0.614885 0.0335811
rclavicle -4.13472e-014 1.74931e-013
rhumerus 15.7223 68.5362 -32.9317
rradius 78.6684
rwrist -53.7289
rhand -22.6707 -11.8881
rfingers 7.12502
rthumb 3.76114 -41.8347
lclavicle -4.13472e-014 1.74931e-013
lhumerus 32.5037 -69.187 64.9364
lradius 32.9892
lwrist -8.17618
lhand -22.9224 58.339
lfingers 7.12502
lthumb 3.51809 88.2897
rfemur -9.13257 -8.71552 23.8251
rtibia -2.3059e-014
rfoot 0.139515 -9.588
rtoes -28.1678
lfemur -36.5166 -3.93793 -4.67287
ltibia 37.0989
lfoot -15.4965 -2.90774
ltoes -26.4095
